<?xml version="1.0" encoding="UTF-8"?>
<svg id="_图层_2" data-name="图层_2" xmlns="http://www.w3.org/2000/svg" viewBox="0 0 1275.16 1275">
  <defs>
    <style>
      .cls-1 {
        fill: #1a1a1a;
      }

      .cls-2 {
        fill: #20973a;
      }
    </style>
  </defs>
  <g id="_图层_1-2" data-name="图层_1">
    <path class="cls-1" d="M1017.45,0H257.55C115.23,0,0,115.23,0,257.55v760.06c0,142.16,115.23,257.39,257.55,257.39h760.06c142.16,0,257.55-115.23,257.55-257.55V257.55C1275,115.23,1159.77,0,1017.45,0Z"/>
    <polygon class="cls-2" points="1044.74 659.18 940.1 640.73 903.2 850 798.57 831.55 798.57 831.55 796.95 831.27 796.95 212.5 690.7 212.5 584.45 212.5 478.2 212.5 478.2 618.77 476.59 619.05 371.95 637.5 335.05 428.23 230.42 446.68 125.78 465.13 162.68 674.4 199.58 883.67 304.22 865.22 408.85 846.77 478.2 834.54 478.2 1275 584.45 1275 690.7 1275 796.95 1275 796.95 1047.04 866.3 1059.27 970.94 1077.72 1075.58 1096.17 1112.48 886.9 1149.38 677.63 1044.74 659.18"/>
  </g>
</svg>