<?xml version="1.0" encoding="UTF-8"?>
<svg xmlns="http://www.w3.org/2000/svg" version="1.1" viewBox="0 0 1080 1080">
  <defs>
    <style>
      .cls-1 {
        fill: #56fe38;
      }

      .cls-2 {
        fill: #0d0d0e;
      }

      .cls-3 {
        fill: #2c3033;
      }

      .cls-4 {
        fill: none;
      }

      .cls-5 {
        fill: #595e62;
      }
    </style>
  </defs>
  <!-- Generator: Adobe Illustrator 28.7.1, SVG Export Plug-In . SVG Version: 1.2.0 Build 142)  -->
  <g>
    <g id="_图层_1" data-name="图层_1">
      <g>
        <rect class="cls-3" x="233.7" y="668.9" width="51" height="51"/>
        <polygon class="cls-2" points="794.9 311.8 743.9 311.8 692.9 311.8 641.9 311.8 590.8 311.8 539.8 311.8 488.8 311.8 437.8 311.8 386.8 311.8 335.7 311.8 284.7 311.8 233.7 311.8 233.7 362.8 233.7 413.8 284.7 413.8 284.7 362.8 335.7 362.8 386.8 362.8 437.8 362.8 488.8 362.8 539.8 362.8 590.8 362.8 641.9 362.8 692.9 362.8 743.9 362.8 794.9 362.8 794.9 413.8 845.9 413.8 845.9 362.8 845.9 311.8 794.9 311.8"/>
        <polygon class="cls-3" points="795.1 413.8 744.1 413.8 693.1 413.8 642 413.8 591 413.8 540 413.8 489 413.8 438 413.8 386.9 413.8 335.9 413.8 284.9 413.8 233.9 413.8 233.9 464.9 233.9 515.9 233.9 566.9 233.9 617.9 233.9 668.9 284.9 668.9 284.9 720 233.9 720 233.9 771 284.9 771 335.9 771 386.9 771 438 771 489 771 540 771 591 771 642 771 693.1 771 744.1 771 795.1 771 846.1 771 846.1 720 846.1 668.9 846.1 617.9 846.1 566.9 846.1 515.9 846.1 464.9 846.1 413.8 795.1 413.8"/>
        <polygon class="cls-5" points="743.9 362.8 692.9 362.8 641.9 362.8 590.8 362.8 539.8 362.8 488.8 362.8 437.8 362.8 386.8 362.8 335.7 362.8 284.7 362.8 284.7 413.8 335.7 413.8 386.8 413.8 437.8 413.8 488.8 413.8 539.8 413.8 590.8 413.8 641.9 413.8 692.9 413.8 743.9 413.8 794.9 413.8 794.9 362.8 743.9 362.8"/>
        <g>
          <polygon class="cls-5" points="489 464.9 489 515.9 489 566.9 540 566.9 540 515.9 540 464.9 489 464.9"/>
          <polygon class="cls-2" points="540 464.9 540 515.9 540 566.9 591 566.9 591 515.9 591 464.9 540 464.9"/>
          <polygon class="cls-2" points="591 617.9 540 617.9 489 617.9 438 617.9 438 668.9 489 668.9 540 668.9 591 668.9 642 668.9 642 617.9 591 617.9"/>
        </g>
        <rect class="cls-4" x="183.8" y="183.8" width="712.4" height="712.4"/>
        <rect class="cls-1" x="233.7" y="668.9" width="51" height="51"/>
      </g>
    </g>
  </g>
</svg>